{"scene":0,"asset":{"generator":"ImageToStl.com","version":"2.0"},"scenes":[{"name":"Scene","nodes":[0]}],"nodes":[{"name":"Node0","children":[1,2]},{"name":"Node1","mesh":0},{"name":"Node2","mesh":1}],"materials":[{"name":"metal_plate_02","pbrMetallicRoughness":{"baseColorFactor":[0.8,0.8,0.8,1.0],"metallicFactor":0.5,"roughnessFactor":0.75},"emissiveFactor":[0.0,0.0,0.0],"doubleSided":true}],"meshes":[{"name":"Mesh0","primitives":[{"indices":3,"material":0,"attributes":{"POSITION":0,"NORMAL":1,"TEXCOORD_0":2}}]},{"name":"Mesh0","primitives":[{"indices":7,"material":0,"attributes":{"POSITION":4,"NORMAL":5,"TEXCOORD_0":6}}]}],"accessors":[{"bufferView":0,"componentType":5126,"count":8817,"type":"VEC3","min":[-0.99679226,-0.99679303,-0.9996725],"max":[0.9967927,0.9967919,0.9996725]},{"bufferView":1,"componentType":5126,"count":8817,"type":"VEC3"},{"bufferView":2,"componentType":5126,"count":8817,"type":"VEC2"},{"bufferView":3,"componentType":5123,"count":145152,"type":"SCALAR"},{"bufferView":4,"componentType":5126,"count":4225,"type":"VEC3","min":[-1.0000001,-1.0000001,0.0],"max":[1.0000001,1.0000001,0.0]},{"bufferView":5,"componentType":5126,"count":4225,"type":"VEC3"},{"bufferView":6,"componentType":5126,"count":4225,"type":"VEC2"},{"bufferView":7,"componentType":5123,"count":73728,"type":"SCALAR"}],"bufferViews":[{"target":34962,"buffer":0,"byteLength":105804,"byteOffset":0},{"target":34962,"buffer":0,"byteLength":105804,"byteOffset":105804},{"target":34962,"buffer":0,"byteLength":70536,"byteOffset":211608},{"target":34963,"buffer":0,"byteLength":290304,"byteOffset":282144},{"target":34962,"buffer":0,"byteLength":50700,"byteOffset":572448},{"target":34962,"buffer":0,"byteLength":50700,"byteOffset":623148},{"target":34962,"buffer":0,"byteLength":33800,"byteOffset":673848},{"target":34963,"buffer":0,"byteLength":147456,"byteOffset":707648}],"buffers":[{"byteLength":855104,"uri":"data:application/octet-stream;base64,"}]}