<svg id="visual" viewBox="0 0 900 600" width="900" height="600" xmlns="http://www.w3.org/2000/svg" xmlns:xlink="http://www.w3.org/1999/xlink" version="1.1"><rect x="0" y="0" width="900" height="600" fill="#F4F1DE"></rect><path d="M0 384L16.7 380.8C33.3 377.7 66.7 371.3 100 365.5C133.3 359.7 166.7 354.3 200 362.5C233.3 370.7 266.7 392.3 300 404.2C333.3 416 366.7 418 400 406C433.3 394 466.7 368 500 362.8C533.3 357.7 566.7 373.3 600 372.8C633.3 372.3 666.7 355.7 700 346.3C733.3 337 766.7 335 800 349.7C833.3 364.3 866.7 395.7 883.3 411.3L900 427L900 601L883.3 601C866.7 601 833.3 601 800 601C766.7 601 733.3 601 700 601C666.7 601 633.3 601 600 601C566.7 601 533.3 601 500 601C466.7 601 433.3 601 400 601C366.7 601 333.3 601 300 601C266.7 601 233.3 601 200 601C166.7 601 133.3 601 100 601C66.7 601 33.3 601 16.7 601L0 601Z" fill="#d4cbe5"></path><path d="M0 409L16.7 410.3C33.3 411.7 66.7 414.3 100 412.5C133.3 410.7 166.7 404.3 200 404.2C233.3 404 266.7 410 300 420.2C333.3 430.3 366.7 444.7 400 445.5C433.3 446.3 466.7 433.7 500 422.7C533.3 411.7 566.7 402.3 600 400C633.3 397.7 666.7 402.3 700 412.2C733.3 422 766.7 437 800 435C833.3 433 866.7 414 883.3 404.5L900 395L900 601L883.3 601C866.7 601 833.3 601 800 601C766.7 601 733.3 601 700 601C666.7 601 633.3 601 600 601C566.7 601 533.3 601 500 601C466.7 601 433.3 601 400 601C366.7 601 333.3 601 300 601C266.7 601 233.3 601 200 601C166.7 601 133.3 601 100 601C66.7 601 33.3 601 16.7 601L0 601Z" fill="#b4c7ed"></path><path d="M0 448L16.7 444.8C33.3 441.7 66.7 435.3 100 438.7C133.3 442 166.7 455 200 457.7C233.3 460.3 266.7 452.7 300 454.7C333.3 456.7 366.7 468.3 400 474.8C433.3 481.3 466.7 482.7 500 484C533.3 485.3 566.7 486.7 600 479.3C633.3 472 666.7 456 700 449.7C733.3 443.3 766.7 446.7 800 455C833.3 463.3 866.7 476.7 883.3 483.3L900 490L900 601L883.3 601C866.7 601 833.3 601 800 601C766.7 601 733.3 601 700 601C666.7 601 633.3 601 600 601C566.7 601 533.3 601 500 601C466.7 601 433.3 601 400 601C366.7 601 333.3 601 300 601C266.7 601 233.3 601 200 601C166.7 601 133.3 601 100 601C66.7 601 33.3 601 16.7 601L0 601Z" fill="#83c7eb"></path><path d="M0 524L16.7 521.5C33.3 519 66.7 514 100 510.5C133.3 507 166.7 505 200 501.5C233.3 498 266.7 493 300 489.3C333.3 485.7 366.7 483.3 400 490.7C433.3 498 466.7 515 500 518.7C533.3 522.3 566.7 512.7 600 513.2C633.3 513.7 666.7 524.3 700 521.3C733.3 518.3 766.7 501.7 800 502.7C833.3 503.7 866.7 522.3 883.3 531.7L900 541L900 601L883.3 601C866.7 601 833.3 601 800 601C766.7 601 733.3 601 700 601C666.7 601 633.3 601 600 601C566.7 601 533.3 601 500 601C466.7 601 433.3 601 400 601C366.7 601 333.3 601 300 601C266.7 601 233.3 601 200 601C166.7 601 133.3 601 100 601C66.7 601 33.3 601 16.7 601L0 601Z" fill="#4cc6d7"></path><path d="M0 548L16.7 545.5C33.3 543 66.7 538 100 540.3C133.3 542.7 166.7 552.3 200 559.2C233.3 566 266.7 570 300 565.8C333.3 561.7 366.7 549.3 400 547.8C433.3 546.3 466.7 555.7 500 555.5C533.3 555.3 566.7 545.7 600 543.5C633.3 541.3 666.7 546.7 700 547.8C733.3 549 766.7 546 800 543.3C833.3 540.7 866.7 538.3 883.3 537.2L900 536L900 601L883.3 601C866.7 601 833.3 601 800 601C766.7 601 733.3 601 700 601C666.7 601 633.3 601 600 601C566.7 601 533.3 601 500 601C466.7 601 433.3 601 400 601C366.7 601 333.3 601 300 601C266.7 601 233.3 601 200 601C166.7 601 133.3 601 100 601C66.7 601 33.3 601 16.7 601L0 601Z" fill="#33c1b1"></path></svg>